<svg xmlns="http://www.w3.org/2000/svg">

    <symbol id="cross" viewBox="0 0 512 512">
        <path d="M283.92 254.78 446.15 92.55a6.313 6.313 0 0 0 0-8.92l-17.78-17.78a6.313 6.313 0 0 0-8.92 0L257.22 228.08c-.67.67-1.77.67-2.44 0L92.55 65.85a6.313 6.313 0 0 0-8.92 0L65.85 83.63a6.313 6.313 0 0 0 0 8.92l162.23 162.23c.67.67.67 1.77 0 2.44L65.85 419.45a6.313 6.313 0 0 0 0 8.92l17.78 17.78a6.313 6.313 0 0 0 8.92 0l162.23-162.23c.67-.67 1.77-.67 2.44 0l162.23 162.23a6.313 6.313 0 0 0 8.92 0l17.78-17.78a6.313 6.313 0 0 0 0-8.92L283.92 257.22c-.67-.67-.67-1.77 0-2.44z" fill="currentColor"></path>
    </symbol>

    <symbol id="tick" viewBox="0 0 512 512">
        <path d="M192.89 456.39 70.05 272.26a6.06 6.06 0 0 1 1.68-8.41l20.1-13.41a6.06 6.06 0 0 1 8.41 1.68l92.63 138.85c2.4 3.6 7.69 3.6 10.09 0L411.75 77.79a6.06 6.06 0 0 1 8.41-1.68l20.11 13.4a6.06 6.06 0 0 1 1.68 8.41L202.98 456.39c-2.4 3.6-7.69 3.6-10.09 0z" fill="currentColor"></path>
    </symbol>
    
</svg>