<svg xmlns="http://www.w3.org/2000/svg">

    <symbol id="cross" viewBox="0 0 512 512">
        <path d="M283.92 254.78 446.15 92.55a6.313 6.313 0 0 0 0-8.92l-17.78-17.78a6.313 6.313 0 0 0-8.92 0L257.22 228.08c-.67.67-1.77.67-2.44 0L92.55 65.85a6.313 6.313 0 0 0-8.92 0L65.85 83.63a6.313 6.313 0 0 0 0 8.92l162.23 162.23c.67.67.67 1.77 0 2.44L65.85 419.45a6.313 6.313 0 0 0 0 8.92l17.78 17.78a6.313 6.313 0 0 0 8.92 0l162.23-162.23c.67-.67 1.77-.67 2.44 0l162.23 162.23a6.313 6.313 0 0 0 8.92 0l17.78-17.78a6.313 6.313 0 0 0 0-8.92L283.92 257.22c-.67-.67-.67-1.77 0-2.44z" fill="currentColor"></path>
    </symbol>
    
</svg>